<svg width="28" height="18" viewBox="0 0 28 18" fill="none" xmlns="http://www.w3.org/2000/svg">
<path d="M13.0625 3.54688C13.0625 3.11523 13.3945 2.75 13.8594 2.75H27.1406C27.5723 2.75 27.9375 3.11523 27.9375 3.54688C27.9375 4.01172 27.5723 4.34375 27.1406 4.34375H13.8594C13.3945 4.34375 13.0625 4.01172 13.0625 3.54688ZM13.0625 8.85938C13.0625 8.42773 13.3945 8.0625 13.8594 8.0625H27.1406C27.5723 8.0625 27.9375 8.42773 27.9375 8.85938C27.9375 9.32422 27.5723 9.65625 27.1406 9.65625H13.8594C13.3945 9.65625 13.0625 9.32422 13.0625 8.85938ZM27.1406 14.9688H13.8594C13.3945 14.9688 13.0625 14.6367 13.0625 14.1719C13.0625 13.7402 13.3945 13.375 13.8594 13.375H27.1406C27.5723 13.375 27.9375 13.7402 27.9375 14.1719C27.9375 14.6367 27.5723 14.9688 27.1406 14.9688Z" fill="#313131" fill-opacity="0.5"/>
<mask id="path-2-outside-1_2583_9732" maskUnits="userSpaceOnUse" x="-2" y="-1.5" width="21" height="22" fill="black">
<rect fill="white" x="-2" y="-1.5" width="21" height="22"/>
<path d="M16.7344 16.2637C17.0664 16.5957 17.0664 17.0938 16.7344 17.3926C16.6016 17.5586 16.4023 17.625 16.2031 17.625C15.9707 17.625 15.7715 17.5586 15.6055 17.3926L11.1562 12.9434C9.96094 13.9062 8.4668 14.4375 6.87305 14.4375C3.08789 14.4375 0 11.3496 0 7.53125C0 3.74609 3.05469 0.625 6.87305 0.625C10.6582 0.625 13.7793 3.74609 13.7793 7.53125C13.7793 9.1582 13.248 10.6523 12.2852 11.8145L16.7344 16.2637ZM1.59375 7.53125C1.59375 10.4863 3.95117 12.8438 6.90625 12.8438C9.82812 12.8438 12.2188 10.4863 12.2188 7.53125C12.2188 4.60938 9.82812 2.21875 6.90625 2.21875C3.95117 2.21875 1.59375 4.60938 1.59375 7.53125Z"/>
</mask>
<path d="M16.7344 16.2637C17.0664 16.5957 17.0664 17.0938 16.7344 17.3926C16.6016 17.5586 16.4023 17.625 16.2031 17.625C15.9707 17.625 15.7715 17.5586 15.6055 17.3926L11.1562 12.9434C9.96094 13.9062 8.4668 14.4375 6.87305 14.4375C3.08789 14.4375 0 11.3496 0 7.53125C0 3.74609 3.05469 0.625 6.87305 0.625C10.6582 0.625 13.7793 3.74609 13.7793 7.53125C13.7793 9.1582 13.248 10.6523 12.2852 11.8145L16.7344 16.2637ZM1.59375 7.53125C1.59375 10.4863 3.95117 12.8438 6.90625 12.8438C9.82812 12.8438 12.2188 10.4863 12.2188 7.53125C12.2188 4.60938 9.82812 2.21875 6.90625 2.21875C3.95117 2.21875 1.59375 4.60938 1.59375 7.53125Z" fill="#7A7A7A"/>
<path d="M16.7344 17.3926L15.3964 15.906L15.2748 16.0154L15.1726 16.1432L16.7344 17.3926ZM11.1562 12.9434L12.5705 11.5291L11.3004 10.2591L9.90159 11.3859L11.1562 12.9434ZM12.2852 11.8145L10.7451 10.5384L9.58311 11.9408L10.8709 13.2287L12.2852 11.8145ZM15.3202 17.6779C15.127 17.4847 14.9834 17.1897 14.9834 16.8406C14.9834 16.4852 15.1349 16.1413 15.3964 15.906L18.0723 18.8792C19.3308 17.7465 19.218 15.9188 18.1486 14.8495L15.3202 17.6779ZM15.1726 16.1432C15.5228 15.7055 15.9823 15.625 16.2031 15.625V19.625C16.8224 19.625 17.6803 19.4117 18.2961 18.642L15.1726 16.1432ZM16.2031 15.625C16.2774 15.625 16.4148 15.6358 16.5816 15.6984C16.7562 15.7638 16.906 15.8647 17.0197 15.9784L14.1913 18.8068C14.7987 19.4143 15.5422 19.625 16.2031 19.625V15.625ZM17.0197 15.9784L12.5705 11.5291L9.74204 14.3576L14.1913 18.8068L17.0197 15.9784ZM9.90159 11.3859C9.06586 12.0591 8.01565 12.4375 6.87305 12.4375V16.4375C8.91795 16.4375 10.856 15.7534 12.4109 14.5009L9.90159 11.3859ZM6.87305 12.4375C4.19873 12.4375 2 10.2513 2 7.53125H-2C-2 12.4479 1.97705 16.4375 6.87305 16.4375V12.4375ZM2 7.53125C2 4.83179 4.17803 2.625 6.87305 2.625V-1.375C1.93134 -1.375 -2 2.6604 -2 7.53125H2ZM6.87305 2.625C9.55363 2.625 11.7793 4.85066 11.7793 7.53125H15.7793C15.7793 2.64152 11.7628 -1.375 6.87305 -1.375V2.625ZM11.7793 7.53125C11.7793 8.71744 11.3951 9.75401 10.7451 10.5384L13.8252 13.0905C15.101 11.5507 15.7793 9.59897 15.7793 7.53125H11.7793ZM10.8709 13.2287L15.3202 17.6779L18.1486 14.8495L13.6994 10.4002L10.8709 13.2287ZM-0.40625 7.53125C-0.40625 11.5909 2.8466 14.8438 6.90625 14.8438V10.8438C5.05574 10.8438 3.59375 9.38176 3.59375 7.53125H-0.40625ZM6.90625 14.8438C10.9245 14.8438 14.2188 11.599 14.2188 7.53125H10.2188C10.2188 9.37362 8.73171 10.8438 6.90625 10.8438V14.8438ZM14.2188 7.53125C14.2188 3.50481 10.9327 0.21875 6.90625 0.21875V4.21875C8.72356 4.21875 10.2188 5.71394 10.2188 7.53125H14.2188ZM6.90625 0.21875C2.83847 0.21875 -0.40625 3.51296 -0.40625 7.53125H3.59375C3.59375 5.70579 5.06388 4.21875 6.90625 4.21875V0.21875Z" fill="white" mask="url(#path-2-outside-1_2583_9732)"/>
</svg>
